<svg id="svg" xmlns="http://www.w3.org/2000/svg" xmlns:xlink="http://www.w3.org/1999/xlink" width="400" height="400" viewBox="0, 0, 400,400" version="1.1"><g id="svgg"><path id="path0" d="M140.625 10.816 C 100.112 25.153,92.966 13.756,234.179 160.036 C 301.856 230.141,354.603 287.500,351.395 287.500 C 348.188 287.500,330.783 271.872,312.718 252.771 C 294.654 233.671,278.765 219.151,277.411 220.506 C 276.056 221.860,293.151 240.448,315.399 261.811 C 363.158 307.672,373.833 306.806,390.810 255.694 C 438.691 111.538,283.962 -39.909,140.625 10.816 M117.325 59.375 C 150.759 100.290,275.029 223.427,274.900 215.513 C 274.845 212.137,233.622 168.594,183.294 118.750 C 132.966 68.906,103.280 42.188,117.325 59.375 M55.210 64.063 C 30.404 90.464,6.944 142.783,4.813 176.458 L 3.125 203.125 65.625 204.930 L 128.125 206.736 98.438 176.591 C 62.674 140.276,62.389 137.247,92.166 109.959 C 120.287 84.188,126.650 85.682,103.903 112.716 C 82.468 138.190,82.647 139.097,116.193 174.961 C 142.503 203.089,147.564 205.791,177.131 207.506 C 213.576 209.619,224.080 226.447,191.290 230.189 C 173.248 232.249,173.306 232.354,216.123 275.502 C 272.625 332.440,255.642 331.573,196.798 274.515 L 151.178 230.280 78.714 226.711 L 6.250 223.142 6.250 239.904 C 6.250 346.131,174.301 433.805,280.599 383.035 C 328.757 360.033,380.514 306.250,354.491 306.250 C 350.086 306.250,287.663 247.188,215.774 175.000 C 70.127 28.751,81.200 36.401,55.210 64.063 M181.250 48.750 C 181.250 55.219,167.719 68.750,161.250 68.750 C 153.175 68.750,155.523 51.335,164.063 47.889 C 176.114 43.026,181.250 43.284,181.250 48.750 M193.163 72.582 C 184.081 83.525,178.283 79.248,183.559 65.498 C 185.678 59.976,190.381 57.293,194.009 59.535 C 198.540 62.336,198.275 66.423,193.163 72.582 M212.500 80.485 C 212.500 88.477,194.123 102.456,189.583 97.917 C 185.044 93.377,199.023 75.000,207.015 75.000 C 210.032 75.000,212.500 77.468,212.500 80.485 M224.538 103.681 C 220.513 108.532,212.909 112.500,207.641 112.500 C 199.576 112.500,199.829 110.548,209.242 100.147 C 221.739 86.337,236.166 89.671,224.538 103.681 M240.645 124.978 C 232.029 134.498,227.355 135.798,220.926 130.463 C 209.755 121.191,210.222 116.538,221.875 121.010 C 227.031 122.989,231.250 121.883,231.250 118.554 C 231.250 115.224,235.905 112.500,241.594 112.500 C 250.902 112.500,250.807 113.749,240.645 124.978 M268.750 137.500 C 284.663 153.413,285.183 161.747,269.370 147.437 C 261.060 139.916,256.178 138.811,253.120 143.759 C 250.715 147.649,253.952 154.774,260.312 159.592 C 266.671 164.410,268.795 168.442,265.031 168.551 C 250.457 168.975,235.203 144.673,243.653 134.492 C 253.610 122.494,253.762 122.512,268.750 137.500 M293.750 167.985 C 293.750 176.131,277.607 188.024,272.917 183.333 C 268.226 178.643,280.119 162.500,288.265 162.500 C 291.282 162.500,293.750 164.968,293.750 167.985 M306.250 180.485 C 306.250 188.477,287.873 202.456,283.333 197.917 C 278.794 193.377,292.773 175.000,300.765 175.000 C 303.782 175.000,306.250 177.468,306.250 180.485 M318.750 192.985 C 318.750 200.977,300.373 214.956,295.833 210.417 C 291.294 205.877,305.273 187.500,313.265 187.500 C 316.282 187.500,318.750 189.968,318.750 192.985 M346.061 238.400 C 336.330 249.152,335.357 248.962,323.590 234.002 C 305.017 210.391,320.030 193.152,341.554 213.372 C 355.206 226.198,355.521 227.947,346.061 238.400 M236.302 219.219 C 235.070 222.914,231.391 225.938,228.125 225.938 C 224.859 225.938,221.180 222.914,219.948 219.219 C 218.716 215.523,222.396 212.500,228.125 212.500 C 233.854 212.500,237.534 215.523,236.302 219.219 M328.997 216.837 C 321.958 223.875,324.710 231.250,334.375 231.250 C 339.531 231.250,343.750 228.603,343.750 225.369 C 343.750 217.488,333.990 211.843,328.997 216.837 M312.652 284.558 C 327.303 302.212,290.232 332.483,269.813 319.539 C 263.372 315.456,265.483 310.017,279.188 295.377 C 300.257 272.871,302.382 272.184,312.652 284.558 " stroke="none" fill="#000000" fill-rule="evenodd"></path></g></svg>